<svg xmlns="http://www.w3.org/2000/svg" xmlns:xlink="http://www.w3.org/1999/xlink" width="2000" zoomAndPan="magnify" viewBox="0 0 1500 1499.999933" height="2000" preserveAspectRatio="xMidYMid meet" version="1.0"><defs><g/><clipPath id="3d8df7562e"><rect x="0" width="1495" y="0" height="489"/></clipPath></defs><rect x="-150" width="1800" fill="#ffffff" y="-149.999993" height="1799.99992" fill-opacity="1"/><rect x="-150" width="1800" fill="#faf9f6" y="-149.999993" height="1799.99992" fill-opacity="1"/><g transform="matrix(1, 0, 0, 1, 0, 524)"><g clip-path="url(#3d8df7562e)"><g fill="#0e59c3" fill-opacity="1"><g transform="translate(81.389975, 416.678802)"><g><path d="M 96.09375 -286.671875 C 102.96875 -287.515625 108.945312 -286.46875 114.03125 -283.53125 C 119.113281 -280.59375 123.097656 -276.597656 125.984375 -271.546875 C 128.867188 -266.492188 130.296875 -261.179688 130.265625 -255.609375 C 130.234375 -250.035156 128.613281 -245.234375 125.40625 -241.203125 C 122.195312 -237.179688 117.1875 -234.628906 110.375 -233.546875 C 99.132812 -232.046875 87.507812 -230.066406 75.5 -227.609375 C 80.769531 -201.441406 86.097656 -175.28125 91.484375 -149.125 C 96.867188 -122.976562 102.222656 -96.695312 107.546875 -70.28125 C 109.085938 -63.613281 108.46875 -57.691406 105.6875 -52.515625 C 102.90625 -47.335938 99.046875 -43.328125 94.109375 -40.484375 C 89.179688 -37.640625 83.925781 -36.226562 78.34375 -36.25 C 72.769531 -36.269531 67.789062 -37.835938 63.40625 -40.953125 C 59.03125 -44.078125 56.039062 -49.097656 54.4375 -56.015625 C 49.101562 -82.421875 43.726562 -108.753906 38.3125 -135.015625 C 32.90625 -161.285156 27.539062 -187.625 22.21875 -214.03125 C 11.707031 -210.71875 1.507812 -207.222656 -8.375 -203.546875 C -15.03125 -201.003906 -20.851562 -200.769531 -25.84375 -202.84375 C -30.832031 -204.914062 -34.671875 -208.367188 -37.359375 -213.203125 C -40.054688 -218.046875 -41.40625 -223.316406 -41.40625 -229.015625 C -41.414062 -234.710938 -39.953125 -240.109375 -37.015625 -245.203125 C -34.085938 -250.296875 -29.300781 -254.113281 -22.65625 -256.65625 C 15.695312 -271.269531 55.28125 -281.273438 96.09375 -286.671875 Z M 96.09375 -286.671875 "/></g></g></g><g fill="#0e59c3" fill-opacity="1"><g transform="translate(250.641936, 369.013227)"><g><path d="M 161.5625 -256.234375 C 169 -247.867188 174.835938 -238.039062 179.078125 -226.75 C 183.328125 -215.457031 186.382812 -203.832031 188.25 -191.875 C 190.125 -179.925781 191.144531 -168.632812 191.3125 -158 C 191.726562 -141.664062 189.460938 -125.738281 184.515625 -110.21875 C 179.578125 -94.695312 171.769531 -80.65625 161.09375 -68.09375 C 150.800781 -56.070312 138.117188 -46.363281 123.046875 -38.96875 C 107.972656 -31.582031 92.425781 -28.953125 76.40625 -31.078125 C 65.75 -32.398438 56.046875 -36.007812 47.296875 -41.90625 C 38.554688 -47.8125 30.835938 -54.945312 24.140625 -63.3125 C 17.441406 -71.6875 12.035156 -80.472656 7.921875 -89.671875 C 3.140625 -99.742188 -0.71875 -111.65625 -3.65625 -125.40625 C -6.59375 -139.164062 -8.140625 -153.476562 -8.296875 -168.34375 C -8.453125 -183.207031 -6.875 -197.390625 -3.5625 -210.890625 C -0.25 -224.398438 5.378906 -236.078125 13.328125 -245.921875 C 21.191406 -257.503906 31.5 -266.535156 44.25 -273.015625 C 57.007812 -279.492188 70.601562 -283.332031 85.03125 -284.53125 C 99.46875 -285.726562 113.429688 -283.988281 126.921875 -279.3125 C 140.421875 -274.632812 151.96875 -266.941406 161.5625 -256.234375 Z M 120.796875 -104.125 C 127.609375 -113.28125 132.09375 -123.320312 134.25 -134.25 C 136.40625 -145.1875 136.972656 -156.335938 135.953125 -167.703125 C 134.929688 -179.066406 132.753906 -189.914062 129.421875 -200.25 C 126.109375 -210.582031 120.421875 -218.507812 112.359375 -224.03125 C 104.304688 -229.5625 94.644531 -231.195312 83.375 -228.9375 C 77.113281 -227.832031 71.3125 -225.191406 65.96875 -221.015625 C 60.632812 -216.835938 56.484375 -211.878906 53.515625 -206.140625 C 50.253906 -199.347656 48.40625 -191.566406 47.96875 -182.796875 C 47.539062 -174.035156 47.488281 -165.960938 47.8125 -158.578125 C 48.507812 -142.054688 52.175781 -126.320312 58.8125 -111.375 C 60.820312 -107.007812 63.253906 -102.722656 66.109375 -98.515625 C 68.972656 -94.304688 72.585938 -91.101562 76.953125 -88.90625 C 84.023438 -85.4375 91.472656 -85.078125 99.296875 -87.828125 C 107.117188 -90.585938 113.59375 -95.03125 118.71875 -101.15625 C 119.3125 -102 120.003906 -102.988281 120.796875 -104.125 Z M 120.796875 -104.125 "/></g></g></g><g fill="#0e59c3" fill-opacity="1"><g transform="translate(448.182261, 332.321224)"><g><path d="M 196.265625 -225.5625 C 198.835938 -212.53125 200.164062 -198.226562 200.25 -182.65625 C 200.332031 -167.082031 198.832031 -151.375 195.75 -135.53125 C 192.675781 -119.695312 187.738281 -104.804688 180.9375 -90.859375 C 174.132812 -76.921875 165.332031 -64.898438 154.53125 -54.796875 C 143.726562 -44.691406 130.769531 -37.648438 115.65625 -33.671875 C 99.8125 -29.628906 86.003906 -29.6875 74.234375 -33.84375 C 62.472656 -38.007812 52.425781 -45.140625 44.09375 -55.234375 C 35.769531 -65.328125 28.832031 -77.128906 23.28125 -90.640625 C 17.726562 -104.148438 13.398438 -118.378906 10.296875 -133.328125 C 7.191406 -148.285156 5 -162.640625 3.71875 -176.390625 C 2.4375 -190.140625 1.722656 -202.285156 1.578125 -212.828125 C 1.484375 -219.691406 3.265625 -225.421875 6.921875 -230.015625 C 10.585938 -234.617188 15.097656 -237.882812 20.453125 -239.8125 C 25.804688 -241.738281 31.222656 -242.195312 36.703125 -241.1875 C 42.191406 -240.175781 46.816406 -237.742188 50.578125 -233.890625 C 54.335938 -230.035156 56.269531 -224.554688 56.375 -217.453125 C 56.445312 -213.765625 56.726562 -207.523438 57.21875 -198.734375 C 57.707031 -189.953125 58.660156 -180.039062 60.078125 -169 C 61.503906 -157.957031 63.484375 -146.898438 66.015625 -135.828125 C 68.546875 -124.753906 71.703125 -114.957031 75.484375 -106.4375 C 79.265625 -97.925781 83.875 -91.9375 89.3125 -88.46875 C 94.757812 -85.007812 101.226562 -85.4375 108.71875 -89.75 C 119 -95.757812 126.882812 -104.023438 132.375 -114.546875 C 137.875 -125.078125 141.5625 -136.675781 143.4375 -149.34375 C 145.320312 -162.007812 145.972656 -174.632812 145.390625 -187.21875 C 144.816406 -199.8125 143.507812 -211.050781 141.46875 -220.9375 C 139.914062 -227.664062 140.539062 -233.296875 143.34375 -237.828125 C 146.15625 -242.367188 150.117188 -245.523438 155.234375 -247.296875 C 160.359375 -249.078125 165.785156 -249.472656 171.515625 -248.484375 C 177.253906 -247.503906 182.425781 -245.117188 187.03125 -241.328125 C 191.644531 -237.546875 194.722656 -232.289062 196.265625 -225.5625 Z M 196.265625 -225.5625 "/></g></g></g><g fill="#0e59c3" fill-opacity="1"><g transform="translate(645.088586, 314.121938)"><g><path d="M 208.859375 -33.109375 C 212.984375 -27.222656 214.660156 -21.65625 213.890625 -16.40625 C 213.117188 -11.15625 210.765625 -6.585938 206.828125 -2.703125 C 202.890625 1.179688 198.164062 3.898438 192.65625 5.453125 C 187.144531 7.015625 181.519531 6.976562 175.78125 5.34375 C 170.050781 3.71875 165.128906 0.0859375 161.015625 -5.546875 C 150.109375 -20.773438 137.910156 -34.789062 124.421875 -47.59375 C 110.941406 -60.394531 96.410156 -71.984375 80.828125 -82.359375 C 79.515625 -67.929688 78.257812 -53.445312 77.0625 -38.90625 C 75.875 -24.375 74.625 -9.90625 73.3125 4.5 C 72.78125 11.59375 70.484375 17.203125 66.421875 21.328125 C 62.359375 25.460938 57.507812 28.242188 51.875 29.671875 C 46.25 31.097656 40.8125 31.125 35.5625 29.75 C 30.320312 28.375 26 25.535156 22.59375 21.234375 C 19.195312 16.929688 17.765625 11.238281 18.296875 4.15625 C 20.679688 -22.476562 22.570312 -49.601562 23.96875 -77.21875 C 25.363281 -104.84375 28.84375 -131.832031 34.40625 -158.1875 C 37.175781 -171.851562 42.269531 -185.019531 49.6875 -197.6875 C 57.101562 -210.351562 66.519531 -220.804688 77.9375 -229.046875 C 89.351562 -237.285156 102.644531 -241.722656 117.8125 -242.359375 C 128.320312 -242.773438 138.269531 -240.75 147.65625 -236.28125 C 157.050781 -231.820312 165.019531 -225.660156 171.5625 -217.796875 C 178.113281 -209.929688 182.519531 -201.101562 184.78125 -191.3125 C 187.039062 -181.519531 186.421875 -171.382812 182.921875 -160.90625 C 179.441406 -150.414062 173.816406 -140.546875 166.046875 -131.296875 C 158.285156 -122.054688 149.375 -114.046875 139.3125 -107.265625 C 165.332031 -85.828125 188.515625 -61.109375 208.859375 -33.109375 Z M 111.390625 -155.859375 C 112.867188 -157.316406 115.328125 -159.5625 118.765625 -162.59375 C 122.210938 -165.625 125.289062 -168.84375 128 -172.25 C 130.707031 -175.65625 131.820312 -178.335938 131.34375 -180.296875 C 130.394531 -185.441406 128.519531 -188.265625 125.71875 -188.765625 C 122.914062 -189.273438 119.734375 -188.5 116.171875 -186.4375 C 112.609375 -184.382812 109.101562 -181.597656 105.65625 -178.078125 C 102.21875 -174.554688 99.265625 -171.210938 96.796875 -168.046875 C 94.328125 -164.890625 92.722656 -162.578125 91.984375 -161.109375 C 89.992188 -155.503906 88.25 -149.40625 86.75 -142.8125 C 91.632812 -143.507812 96.039062 -145.003906 99.96875 -147.296875 C 103.894531 -149.597656 107.703125 -152.453125 111.390625 -155.859375 Z M 111.390625 -155.859375 "/></g></g></g><g fill="#0e59c3" fill-opacity="1"><g transform="translate(841.025404, 313.729856)"><g><path d="M 182.078125 -205.5625 C 183.710938 -212.28125 186.75 -217.019531 191.1875 -219.78125 C 195.632812 -222.539062 200.59375 -223.65625 206.0625 -223.125 C 211.539062 -222.59375 216.691406 -220.617188 221.515625 -217.203125 C 226.347656 -213.796875 229.972656 -209.390625 232.390625 -203.984375 C 234.816406 -198.585938 235.210938 -192.535156 233.578125 -185.828125 C 217.078125 -119.640625 198.191406 -54.175781 176.921875 10.5625 C 175.179688 15.800781 172.015625 19.914062 167.421875 22.90625 C 162.828125 25.894531 157.691406 27.539062 152.015625 27.84375 C 146.335938 28.15625 141.109375 27.035156 136.328125 24.484375 C 131.546875 21.929688 128.195312 17.859375 126.28125 12.265625 C 121.976562 -1.660156 117.550781 -15.535156 113 -29.359375 C 108.457031 -43.191406 103.898438 -56.957031 99.328125 -70.65625 C 94.140625 -55.195312 89.066406 -39.664062 84.109375 -24.0625 C 79.160156 -8.457031 74.457031 7.109375 70 22.640625 C 68.101562 29.585938 64.8125 34.425781 60.125 37.15625 C 55.445312 39.894531 50.375 40.9375 44.90625 40.28125 C 39.4375 39.625 34.34375 37.65625 29.625 34.375 C 24.90625 31.101562 21.394531 26.769531 19.09375 21.375 C 16.800781 15.988281 16.722656 9.84375 18.859375 2.9375 C 35.191406 -53.925781 53.914062 -110.066406 75.03125 -165.484375 C 76.988281 -170.453125 80.320312 -174.425781 85.03125 -177.40625 C 89.75 -180.382812 94.890625 -182.09375 100.453125 -182.53125 C 106.023438 -182.976562 111.144531 -181.992188 115.8125 -179.578125 C 120.488281 -177.171875 123.769531 -173.046875 125.65625 -167.203125 L 150.59375 -90 C 156.375 -109.082031 161.859375 -128.253906 167.046875 -147.515625 C 172.234375 -166.785156 177.242188 -186.132812 182.078125 -205.5625 Z M 182.078125 -205.5625 "/></g></g></g><g fill="#0e59c3" fill-opacity="1"><g transform="translate(1037.981924, 332.101027)"><g><path d="M 164.296875 -48.734375 C 171.234375 -47.210938 176.453125 -44.144531 179.953125 -39.53125 C 183.453125 -34.914062 185.367188 -29.785156 185.703125 -24.140625 C 186.046875 -18.492188 185.070312 -13.144531 182.78125 -8.09375 C 180.5 -3.039062 176.9375 0.84375 172.09375 3.5625 C 167.257812 6.289062 161.375 6.894531 154.4375 5.375 C 138.21875 1.675781 121.851562 -1.238281 105.34375 -3.375 C 88.84375 -5.507812 72.171875 -6.75 55.328125 -7.09375 C 50.148438 -7.28125 44.957031 -8.773438 39.75 -11.578125 C 34.550781 -14.390625 30.457031 -18.175781 27.46875 -22.9375 C 24.488281 -27.707031 24.070312 -33.257812 26.21875 -39.59375 C 36.34375 -72.019531 46.890625 -104.378906 57.859375 -136.671875 C 68.835938 -168.972656 80.234375 -201.191406 92.046875 -233.328125 C 93.515625 -237.285156 95.59375 -240.515625 98.28125 -243.015625 C 100.820312 -246.023438 104.101562 -248.34375 108.125 -249.96875 C 112.15625 -251.601562 116.832031 -252.054688 122.15625 -251.328125 C 148.257812 -247.328125 174.144531 -242.125 199.8125 -235.71875 C 206.707031 -233.96875 211.894531 -230.722656 215.375 -225.984375 C 218.863281 -221.242188 220.773438 -216.046875 221.109375 -210.390625 C 221.453125 -204.734375 220.476562 -199.382812 218.1875 -194.34375 C 215.90625 -189.300781 212.351562 -185.476562 207.53125 -182.875 C 202.707031 -180.28125 196.851562 -179.851562 189.96875 -181.59375 C 172.382812 -186.039062 154.335938 -189.945312 135.828125 -193.3125 C 133.347656 -186.550781 130.867188 -179.789062 128.390625 -173.03125 C 125.921875 -166.28125 123.570312 -159.503906 121.34375 -152.703125 C 131.164062 -150.671875 140.554688 -148.34375 149.515625 -145.71875 C 156.597656 -143.6875 162.421875 -139.832031 166.984375 -134.15625 C 171.546875 -128.476562 173.101562 -121.671875 171.65625 -113.734375 C 170.820312 -109.171875 168.75 -104.953125 165.4375 -101.078125 C 162.125 -97.203125 158.179688 -94.316406 153.609375 -92.421875 C 149.035156 -90.523438 144.390625 -90.253906 139.671875 -91.609375 C 127.628906 -95.035156 115.472656 -97.867188 103.203125 -100.109375 C 101.015625 -93.554688 98.800781 -86.878906 96.5625 -80.078125 C 94.332031 -73.273438 92.128906 -66.59375 89.953125 -60.03125 C 102.429688 -59 114.832031 -57.546875 127.15625 -55.671875 C 139.488281 -53.804688 151.867188 -51.492188 164.296875 -48.734375 Z M 164.296875 -48.734375 "/></g></g></g><g fill="#0e59c3" fill-opacity="1"><g transform="translate(1199.722, 359.671404)"><g><path d="M 207.75 -204.1875 C 210.28125 -210.851562 214.066406 -215.34375 219.109375 -217.65625 C 224.160156 -219.976562 229.40625 -220.664062 234.84375 -219.71875 C 240.289062 -218.78125 245.238281 -216.453125 249.6875 -212.734375 C 254.132812 -209.023438 257.203125 -204.414062 258.890625 -198.90625 C 260.585938 -193.394531 260.085938 -187.457031 257.390625 -181.09375 C 251.398438 -166.25 245.296875 -150.484375 239.078125 -133.796875 C 232.859375 -117.109375 225.851562 -100.566406 218.0625 -84.171875 C 210.269531 -67.773438 201.285156 -52.585938 191.109375 -38.609375 C 180.941406 -24.628906 169.003906 -12.820312 155.296875 -3.1875 C 141.597656 6.4375 125.59375 12.859375 107.28125 16.078125 C 100.382812 17.273438 94.613281 16.367188 89.96875 13.359375 C 85.332031 10.359375 82.0625 6.257812 80.15625 1.0625 C 78.25 -4.125 77.738281 -9.570312 78.625 -15.28125 C 79.519531 -20.988281 81.882812 -26.050781 85.71875 -30.46875 C 89.5625 -34.882812 94.898438 -37.570312 101.734375 -38.53125 C 110.765625 -40.164062 118.671875 -43.5 125.453125 -48.53125 C 132.234375 -53.5625 138.195312 -59.554688 143.34375 -66.515625 C 132.78125 -65.796875 122.492188 -66.832031 112.484375 -69.625 C 102.484375 -72.425781 93.300781 -77.597656 84.9375 -85.140625 C 73.875 -94.921875 66.753906 -106.425781 63.578125 -119.65625 C 60.410156 -132.894531 60.078125 -146.582031 62.578125 -160.71875 C 65.085938 -174.851562 69.421875 -188.5 75.578125 -201.65625 C 81.742188 -214.820312 88.785156 -226.289062 96.703125 -236.0625 C 101.003906 -241.75 105.929688 -245.050781 111.484375 -245.96875 C 117.046875 -246.894531 122.359375 -246.175781 127.421875 -243.8125 C 132.492188 -241.445312 136.675781 -237.925781 139.96875 -233.25 C 143.269531 -228.582031 144.992188 -223.445312 145.140625 -217.84375 C 145.296875 -212.238281 143.226562 -206.585938 138.9375 -200.890625 C 135.976562 -197.378906 132.640625 -192.453125 128.921875 -186.109375 C 125.210938 -179.765625 121.9375 -172.921875 119.09375 -165.578125 C 116.25 -158.234375 114.679688 -151.1875 114.390625 -144.4375 C 114.109375 -137.6875 116.128906 -131.96875 120.453125 -127.28125 C 124.296875 -122.707031 129.148438 -120.269531 135.015625 -119.96875 C 140.878906 -119.675781 146.867188 -120.800781 152.984375 -123.34375 C 159.097656 -125.882812 164.820312 -129.097656 170.15625 -132.984375 C 175.5 -136.878906 179.890625 -140.523438 183.328125 -143.921875 C 187.523438 -153.921875 191.597656 -163.960938 195.546875 -174.046875 C 199.492188 -184.128906 203.5625 -194.175781 207.75 -204.1875 Z M 207.75 -204.1875 "/></g></g></g></g></g></svg>